<svg width="24" height="24" viewBox="0 0 24 24" fill="none" xmlns="http://www.w3.org/2000/svg">
<path fill-rule="evenodd" clip-rule="evenodd" d="M12 22C17.5228 22 22 17.5228 22 12C22 6.47715 17.5228 2 12 2C6.47715 2 2 6.47715 2 12C2 13.5997 2.37562 15.1116 3.04346 16.4525C3.22094 16.8088 3.28001 17.2161 3.17712 17.6006L2.58151 19.8267C2.32295 20.793 3.20701 21.677 4.17335 21.4185L6.39939 20.8229C6.78393 20.72 7.19121 20.7791 7.54753 20.9565C8.88837 21.6244 10.4003 22 12 22Z" fill="#1D33C0"/>
<path d="M13.7858 15.7397C13.7858 16.1781 13.6106 16.5739 13.3275 16.8614L13.3266 16.8623C12.9025 16.9724 12.4585 17.0306 12.0003 17.0306C11.2804 17.0306 10.6973 16.4401 10.6973 15.7115C10.6973 14.9837 11.2805 14.3924 12.0003 14.3924C12.2815 14.3924 12.5538 14.3496 12.8091 14.2695C13.3824 14.5052 13.7858 15.0747 13.7858 15.7397Z" fill="#E8FD53"/>
<path d="M9.35297 10.0778C10.2011 10.0778 10.8886 9.38182 10.8886 8.52328C10.8886 7.66474 10.2011 6.96875 9.35297 6.96875C8.50489 6.96875 7.81738 7.66474 7.81738 8.52328C7.81738 9.38182 8.50489 10.0778 9.35297 10.0778Z" fill="#E8FD53"/>
<path d="M14.6313 10.0778C15.4794 10.0778 16.1669 9.38182 16.1669 8.52328C16.1669 7.66474 15.4794 6.96875 14.6313 6.96875C13.7832 6.96875 13.0957 7.66474 13.0957 8.52328C13.0957 9.38182 13.7832 10.0778 14.6313 10.0778Z" fill="#E8FD53"/>
<path d="M12.0003 17.0288C11.2806 17.0288 10.6973 16.4382 10.6973 15.7097C10.6973 14.9812 11.2807 14.3907 12.0003 14.3907C13.5137 14.3907 14.7449 13.1442 14.7449 11.6121C14.7449 10.8836 15.3284 10.293 16.0479 10.293C16.7675 10.293 17.3509 10.8835 17.3509 11.6121C17.351 14.5988 14.9507 17.0288 12.0003 17.0288Z" fill="#E8FD53"/>
<path opacity="0.15" d="M13.7858 15.7319C13.7858 16.1703 13.6106 16.5661 13.3275 16.8536L13.3266 16.8545C12.9025 16.9646 12.4585 17.0227 12.0003 17.0227C11.2804 17.0227 10.6973 16.4323 10.6973 15.7037C10.6973 14.9759 11.2805 14.3845 12.0003 14.3845C12.2815 14.3845 12.5538 14.3418 12.8091 14.2617C13.3824 14.4974 13.7858 15.0669 13.7858 15.7319Z" fill="#E8FD53"/>
<path d="M11.9992 17.025C9.04876 17.025 6.64844 14.595 6.64844 11.6082C6.64844 10.8797 7.23188 10.2891 7.95152 10.2891C8.67116 10.2891 9.25451 10.8796 9.25451 11.6082C9.25451 13.1403 10.4857 14.3867 11.9992 14.3867C12.7188 14.3867 13.3022 14.9773 13.3022 15.7058C13.3022 16.4344 12.7188 17.025 11.9992 17.025Z" fill="#E8FD53"/>
</svg>
